<svg version="1.1" id="Layer_1" xmlns="http://www.w3.org/2000/svg" xmlns:xlink="http://www.w3.org/1999/xlink" x="0px" y="0px"
	 width="100%" viewBox="0 0 400 143" enable-background="new 0 0 400 143" xml:space="preserve" shape-rendering="geometricPrecision">
<path fill="none" opacity="1.000000" stroke="none" 
	d="
M334.144409,87.177773 
	C334.429413,87.420395 334.714447,87.663017 335.901978,88.177818 
	C346.931427,88.106209 357.960846,88.034607 369.816467,88.130577 
	C379.386780,87.277824 385.671570,82.716385 388.072784,74.532967 
	C390.704987,65.562248 388.070740,58.247692 380.576752,52.761055 
	C385.160583,41.541527 381.316254,29.010405 371.056427,27.397142 
	C359.155457,25.525831 346.779083,26.676981 334.608856,26.535557 
	C334.529266,26.534632 334.446442,26.807440 334.204712,27.514435 
	C334.253906,27.702946 334.303101,27.891457 334.157410,28.987518 
	C334.221619,48.226192 334.285828,67.464867 334.399445,86.734901 
	C334.399445,86.734901 334.346191,86.750404 334.144409,87.177773 
M69.522026,81.217224 
	C69.721626,81.670265 69.921227,82.123299 71.027512,82.747131 
	C81.408714,82.689857 91.789917,82.632584 102.810165,82.785339 
	C104.445381,84.277542 106.080597,85.769745 107.715820,87.261948 
	C105.906174,88.569427 104.206139,90.766571 102.264862,91.005745 
	C97.726257,91.564903 93.071869,91.184372 88.381821,91.184372 
	C88.381821,99.195488 88.381821,106.602425 88.381821,113.929970 
	C96.129372,113.929970 103.645370,114.478142 111.048950,113.799576 
	C121.753021,112.818504 129.719116,105.267448 132.319839,94.814194 
	C134.238327,87.103180 132.716751,79.997581 128.331543,73.536530 
	C139.879776,56.338207 128.448853,37.188892 116.034996,34.080471 
	C116.003838,33.683464 115.972679,33.286457 116.251884,32.250088 
	C117.307533,31.079966 118.363182,29.909842 120.381561,27.672585 
	C110.437393,27.672585 101.795204,27.672585 93.103104,27.672585 
	C93.103104,34.923512 93.103104,42.341297 93.103104,49.910496 
	C95.196831,49.910496 97.008202,49.910496 99.551086,50.011673 
	C99.796135,50.035034 100.041176,50.058395 99.964920,50.716682 
	C98.553108,52.167225 97.141296,53.617771 94.930473,55.889244 
	C98.321800,55.889244 100.601456,55.358818 102.438896,56.033230 
	C104.414085,56.758198 105.974213,58.614017 107.715446,59.976402 
	C106.057396,61.414139 104.488922,63.942513 102.724686,64.087418 
	C97.181427,64.542717 91.564529,64.101593 85.418900,63.410202 
	C86.608772,61.994991 87.798637,60.579784 89.219612,58.889702 
	C78.264374,58.889702 67.918533,58.889702 57.585217,58.889702 
	C57.585217,64.979637 57.585217,70.712822 57.585217,76.940239 
	C62.905899,76.940239 67.951950,76.940239 73.071243,77.577431 
	C72.411934,78.396172 71.752625,79.214912 70.597725,80.213745 
	C70.405823,80.499275 70.213913,80.784813 69.522026,81.217224 
M59.945793,89.352989 
	C60.640587,88.218376 61.335377,87.083763 62.495796,85.188774 
	C57.795391,85.188774 53.871708,85.188774 49.899078,84.454201 
	C49.837246,83.969978 49.775414,83.485748 49.899212,82.081032 
	C49.837498,72.053650 49.775784,62.026264 49.889946,51.149109 
	C50.595612,50.494442 51.257099,49.342445 52.014942,49.275124 
	C54.654827,49.040607 57.328072,49.180374 59.988636,49.180172 
	C68.399162,49.179527 76.809692,49.179932 85.054092,49.179932 
	C85.054092,41.391846 85.054092,34.315933 85.054092,27.094509 
	C65.175621,27.094509 45.588875,27.094509 25.204521,27.091511 
	C24.987125,28.178583 24.581524,29.265383 24.579954,30.352766 
	C24.544008,55.259796 24.546795,80.166901 24.569651,105.073959 
	C24.570663,106.177711 24.829565,107.281235 25.024498,108.831451 
	C30.190212,108.559410 35.101578,108.300774 40.775032,107.875877 
	C41.187199,107.890488 41.599369,107.905098 42.072067,108.619118 
	C40.499012,110.334396 38.925961,112.049683 37.145866,113.990730 
	C52.126282,113.990730 66.441063,113.990730 80.574539,113.990730 
	C80.574539,106.234337 80.574539,98.865196 80.574539,91.226990 
	C77.727661,91.226990 75.249809,91.356064 72.790298,91.198631 
	C68.411507,90.918335 64.043808,90.464676 59.945793,89.352989 
M224.698563,30.350788 
	C224.139481,28.878908 223.580383,27.407028 222.086227,25.831184 
	C208.154999,25.831184 194.223785,25.831184 180.214417,25.831184 
	C180.214417,46.875408 180.214417,67.425316 180.214417,87.976112 
	C195.091797,87.976112 209.677002,87.976112 224.400970,87.976112 
	C224.400970,82.161087 224.400970,76.599014 224.400970,70.550781 
	C215.853424,70.550781 207.604050,70.550781 199.103607,70.550781 
	C199.103607,68.250092 199.103607,66.432434 200.017654,64.439636 
	C206.610977,64.407410 213.206116,64.448311 219.796112,64.283272 
	C221.168625,64.248894 222.522049,63.452503 224.062195,62.087406 
	C224.062195,57.689384 224.062195,53.291363 224.062195,48.637619 
	C215.443008,48.637619 207.530441,48.637619 199.395432,48.637619 
	C199.395432,46.657127 199.395432,44.964279 199.395432,42.806332 
	C207.436768,42.806332 215.192871,42.806332 223.720856,42.913559 
	C223.943253,41.236771 224.165665,39.559986 224.550903,37.048607 
	C224.496567,35.069485 224.442230,33.090363 224.698563,30.350788 
M285.274841,32.734386 
	C279.035919,51.019970 272.797028,69.305550 266.318268,88.294151 
	C272.275330,88.294151 277.105682,88.029984 281.891022,88.380325 
	C285.517578,88.645821 287.273224,87.459023 288.219360,83.945084 
	C288.621613,82.451263 290.420532,80.338539 291.706299,80.248817 
	C297.456299,79.847580 303.250092,80.074326 309.476532,80.074326 
	C309.756897,88.175888 314.877014,88.846359 320.900269,88.244827 
	C322.715057,88.063591 324.563568,88.240753 326.396027,88.212212 
	C331.520050,88.132401 331.920868,87.581764 330.204041,82.553131 
	C325.528992,68.859787 320.840179,55.170979 316.094543,41.501976 
	C314.304749,36.346798 313.740662,29.270954 310.070435,26.682039 
	C306.360657,24.065216 299.453766,26.306454 294.026611,25.705000 
	C288.846313,25.130907 286.238525,26.992577 285.274841,32.734386 
M267.373901,25.812605 
	C254.097885,25.812605 240.821869,25.812605 227.369781,25.812605 
	C227.369781,46.828732 227.369781,67.372093 227.369781,87.942581 
	C233.734772,87.942581 239.810577,87.942581 246.441177,87.942581 
	C246.441177,80.466637 246.441177,73.254967 246.441177,65.656364 
	C255.085907,65.656364 263.174500,65.656364 271.425842,65.656364 
	C271.425842,60.326664 271.425842,55.418804 271.425842,49.952663 
	C262.944275,49.952663 254.720139,49.952663 246.614609,49.952663 
	C246.614609,47.335842 246.614609,45.287643 246.614609,42.785515 
	C255.236755,42.785515 263.477753,42.785515 271.921967,42.785515 
	C271.921967,37.844070 271.746948,33.355289 271.983337,28.888279 
	C272.141602,25.897280 270.610046,25.585506 267.373901,25.812605 
M152.869980,99.499962 
	C152.869980,111.036774 152.869980,122.573578 152.869980,134.110382 
	C153.607239,134.204712 154.344498,134.299026 155.081757,134.393356 
	C155.353806,132.696350 155.861404,130.999619 155.863358,129.302292 
	C155.908157,90.199242 155.898346,51.096115 155.896118,11.993002 
	C155.896042,10.828837 156.112381,9.585626 155.769684,8.527692 
	C155.532532,7.795633 154.506195,7.319224 152.869965,5.884682 
	C152.869965,37.679604 152.869965,68.089775 152.869980,99.499962 
M224.601593,99.498230 
	C223.012894,107.399353 225.614044,113.094925 231.677490,114.991867 
	C237.967941,116.959824 244.202438,114.070915 246.415649,108.162590 
	C248.714783,102.024925 246.260803,95.345802 240.776993,92.815575 
	C234.586121,89.959106 228.633728,92.181999 224.601593,99.498230 
M220.432739,101.849594 
	C222.060333,93.660614 215.000168,90.488106 202.285004,92.758110 
	C202.285004,100.160446 202.285004,107.546494 202.285004,114.673195 
	C204.400711,114.673195 206.134109,114.673195 208.078018,114.673195 
	C208.078018,112.315590 208.078018,110.344284 208.078018,106.758797 
	C210.407562,108.459267 212.586136,109.210632 213.130066,110.601349 
	C214.874695,115.061951 217.704498,115.991913 222.217392,114.463943 
	C220.708420,111.669121 219.304840,109.069511 217.931747,106.526375 
	C218.730087,105.137787 219.466934,103.856178 220.432739,101.849594 
M302.723541,108.275200 
	C304.893921,112.186829 306.279938,117.320457 312.829620,114.500984 
	C312.616760,113.992210 312.405060,113.393074 312.123566,112.828751 
	C310.448364,109.470093 307.924805,106.756844 310.837372,102.213760 
	C313.290985,98.386543 310.449066,93.776390 305.692841,92.842949 
	C301.581573,92.036087 297.273743,92.230850 293.087372,91.984879 
	C293.087372,100.153770 293.087372,107.534050 293.087372,115.119820 
	C295.180725,115.001274 296.912323,114.903214 297.671234,114.860237 
	C300.353516,112.519684 295.961853,107.517876 302.723541,108.275200 
M348.128235,94.827110 
	C348.128235,101.425247 348.128235,108.023384 348.128235,114.838943 
	C353.855896,114.838943 359.093903,114.838943 364.621613,114.838943 
	C364.356110,113.178635 364.130859,111.769775 363.841461,109.959969 
	C360.555908,109.959969 357.464691,109.959969 354.295227,109.959969 
	C353.710968,102.987213 359.786896,107.843735 361.664795,104.918655 
	C361.404144,103.884735 361.061737,102.526588 360.870148,101.766647 
	C358.446320,100.021553 353.400085,103.370331 354.453979,96.943001 
	C357.963440,96.943001 361.215515,96.943001 364.800049,96.943001 
	C364.380859,95.029404 364.075165,93.633942 363.743042,92.117699 
	C359.335205,92.117699 355.183167,92.006111 351.045288,92.198662 
	C350.050232,92.244965 349.102142,93.300270 348.128235,94.827110 
M179.904861,97.626999 
	C179.904861,103.380486 179.904861,109.133965 179.904861,115.113815 
	C182.250565,114.996849 183.986786,114.910271 185.687180,114.825478 
	C185.894455,112.466515 186.061783,110.562340 186.237732,108.559929 
	C188.027695,108.422600 189.512711,108.378113 190.977768,108.183464 
	C195.708725,107.554939 198.577133,104.667023 198.659088,100.528770 
	C198.741302,96.377319 196.044891,93.004692 191.423935,92.447296 
	C187.731857,92.001938 183.943176,92.357368 179.904724,92.357368 
	C179.904724,94.049988 179.904724,95.354942 179.904861,97.626999 
M259.819641,108.350319 
	C266.568329,107.684067 269.765259,105.010918 269.614594,100.160042 
	C269.456573,95.071655 265.752502,92.245148 259.043121,92.138641 
	C256.441040,92.097343 253.837723,92.131897 251.151352,92.131897 
	C251.151352,100.064705 251.151352,107.447151 251.151352,115.088272 
	C253.189758,114.993431 254.924545,114.912720 255.592010,114.881668 
	C256.982208,112.176399 257.961182,110.271370 259.819641,108.350319 
M273.124298,92.844276 
	C273.124298,100.093597 273.124298,107.342911 273.124298,114.822601 
	C278.584137,114.822601 283.808746,114.822601 289.365051,114.822601 
	C289.064514,113.145828 288.815796,111.758331 288.519531,110.105377 
	C285.262451,110.105377 282.324707,110.105377 279.007385,110.105377 
	C279.123901,108.554871 279.213348,107.364578 279.304901,106.145927 
	C281.766388,106.014145 283.875366,105.901230 286.329926,105.769821 
	C286.064941,104.080643 285.848450,102.700493 285.591125,101.060120 
	C283.317505,101.060120 281.378204,101.060120 278.589630,101.060120 
	C280.245148,93.892067 286.303955,99.043266 289.239624,96.142387 
	C289.062897,95.111115 288.825867,93.727722 288.570099,92.235184 
	C283.433716,92.235184 278.642365,92.235184 273.124298,92.844276 
M375.860870,115.324638 
	C378.157318,113.476036 381.993469,111.864578 382.324799,109.713287 
	C382.668121,107.484489 379.874023,104.508369 377.959412,102.283112 
	C376.540497,100.633926 374.333069,99.663185 372.378998,98.323082 
	C375.203247,95.304581 381.153503,100.220932 380.822235,93.316032 
	C379.827911,92.910301 378.939911,92.411621 377.987061,92.181778 
	C372.746307,90.917664 368.143250,92.490166 366.812805,96.177025 
	C364.980988,101.253265 368.801788,103.278481 372.133453,105.539886 
	C373.631622,106.556770 375.033569,107.715385 376.479187,108.809700 
	C376.291107,109.284309 376.103058,109.758926 375.914978,110.233536 
	C373.427216,110.074707 370.939423,109.915871 368.157623,109.738266 
	C367.700439,110.915916 367.189728,112.231415 366.388763,114.294525 
	C369.624146,114.724449 372.354309,115.087242 375.860870,115.324638 
M333.670319,94.717758 
	C332.742950,93.850891 331.847076,92.277100 330.883026,92.234161 
	C325.442749,91.991859 319.986084,92.117142 314.270508,92.117142 
	C314.270508,93.890900 314.270508,95.265877 314.270508,96.831360 
	C316.396027,96.979507 318.318817,97.113525 320.705688,97.279892 
	C320.705688,103.212357 320.705688,108.944878 320.705688,114.789528 
	C322.914062,114.789528 324.635376,114.789528 326.849243,114.789528 
	C326.849243,108.798950 326.849243,103.068932 326.849243,97.976036 
	C329.579956,97.030846 331.678070,96.304619 333.670319,94.717758 
M342.940186,99.598724 
	C342.940186,97.170784 342.940186,94.742836 342.940186,92.343124 
	C340.612396,92.343124 338.999695,92.343124 337.155334,92.343124 
	C337.155334,99.950882 337.155334,107.343239 337.155334,114.761215 
	C339.153381,114.761215 340.882477,114.761215 342.940186,114.761215 
	C342.940186,109.839745 342.940186,105.204185 342.940186,99.598724 
z"/>
<path fill="#052550" opacity="1.000000" stroke="none" 
	d="
M85.976151,64.007584 
	C91.564529,64.101593 97.181427,64.542717 102.724686,64.087418 
	C104.488922,63.942513 106.057396,61.414139 107.715446,59.976402 
	C105.974213,58.614017 104.414085,56.758198 102.438896,56.033230 
	C100.601456,55.358818 98.321800,55.889244 94.930473,55.889244 
	C97.141296,53.617771 98.553108,52.167225 100.387474,50.317841 
	C100.873932,49.596077 100.937843,49.273155 101.004929,48.981483 
	C101.008110,49.012733 100.945488,49.017811 101.270081,49.036247 
	C101.735451,48.684814 101.876228,48.314953 102.015503,47.979568 
	C102.014000,48.014042 101.945053,48.017143 102.269363,48.035240 
	C102.734673,47.683796 102.875687,47.314251 103.015244,46.979271 
	C103.013779,47.013832 102.944664,47.016819 103.268585,47.034248 
	C103.733902,46.682583 103.875290,46.313480 104.015213,45.979088 
	C104.013748,46.013802 103.944328,46.016777 104.267860,46.033363 
	C104.733185,45.681335 104.874985,45.312721 105.015312,44.979000 
	C105.013840,45.013893 104.944054,45.016872 105.267212,45.032631 
	C105.732559,44.680222 105.874741,44.312057 106.015434,43.978954 
	C106.013947,44.014015 105.943832,44.016994 106.266678,44.032013 
	C106.732040,43.679268 106.874550,43.311504 107.015549,42.978924 
	C107.014046,43.014111 106.943665,43.017097 107.266251,43.031521 
	C107.731628,42.678513 107.874413,42.311081 108.015663,41.978931 
	C108.014130,42.014214 107.943565,42.017208 108.265930,42.031151 
	C108.731316,41.677940 108.874321,41.310783 109.015793,40.978973 
	C109.014244,41.014324 108.943542,41.017342 109.265739,41.030888 
	C109.731117,40.677505 109.874306,40.310581 110.015930,39.979057 
	C110.014374,40.014454 109.943565,40.017490 110.265640,40.030701 
	C110.730980,39.677158 110.874245,39.310410 111.015968,38.979076 
	C111.014420,39.014496 110.943581,39.017559 111.265564,39.030502 
	C111.730827,38.676823 111.874100,38.310196 112.015846,37.978970 
	C112.014328,38.014370 111.943527,38.017464 112.265427,38.030197 
	C112.730576,37.676411 112.873817,37.309895 113.015579,36.978760 
	C113.014107,37.014137 112.943352,37.017204 113.265160,37.029770 
	C113.730255,36.675945 113.873543,36.309551 114.015366,35.978554 
	C114.013908,36.013943 113.943138,36.016987 114.264999,36.029243 
	C114.729958,35.675014 114.873055,35.308529 115.014351,34.975563 
	C115.012558,35.009087 114.945419,35.008701 115.248444,35.041748 
	C115.705688,34.942474 115.859924,34.810158 116.014153,34.677837 
	C128.448853,37.188892 139.879776,56.338207 128.331543,73.536530 
	C132.716751,79.997581 134.238327,87.103180 132.319839,94.814194 
	C129.719116,105.267448 121.753021,112.818504 111.048950,113.799576 
	C103.645370,114.478142 96.129372,113.929970 88.381821,113.929970 
	C88.381821,106.602425 88.381821,99.195488 88.381821,91.184372 
	C93.071869,91.184372 97.726257,91.564903 102.264862,91.005745 
	C104.206139,90.766571 105.906174,88.569427 107.715820,87.261948 
	C106.080597,85.769745 104.445381,84.277542 102.255325,82.290985 
	C95.937141,81.529861 90.171341,81.306725 84.411240,80.982262 
	C79.968216,80.731995 75.532356,80.354546 71.093315,80.033653 
	C71.752625,79.214912 72.411934,78.396172 73.006866,77.278625 
	C72.942490,76.979828 72.950317,77.047562 73.274094,77.051819 
	C73.747673,76.687424 73.897469,76.318771 74.006973,75.958405 
	C73.966690,75.966690 73.950066,76.047264 74.273788,76.051483 
	C74.747391,75.687141 74.897278,75.318581 75.007179,74.958603 
	C74.967194,74.967186 74.949936,75.047134 75.273529,75.051208 
	C75.747147,74.686867 75.897156,74.318451 76.007278,73.958702 
	C75.967392,73.967377 75.949913,74.047127 76.273331,74.050949 
	C76.746910,73.686523 76.897064,73.318291 77.007309,72.958725 
	C76.967407,72.967384 76.949936,73.047173 77.273193,73.050659 
	C77.746704,72.686127 77.896957,72.318092 78.007355,71.958786 
	C77.967491,71.967499 77.949966,72.047203 78.273087,72.050385 
	C78.746513,71.685699 78.896812,71.317841 79.007523,70.958969 
	C78.967934,70.967957 78.949921,71.047134 79.272942,71.050034 
	C79.746262,70.685219 79.896568,70.317505 80.007874,69.959358 
	C79.968872,69.968933 79.949760,70.046936 80.272690,70.049622 
	C80.745926,69.684692 80.896217,69.317078 81.008408,68.959923 
	C80.970299,68.970375 80.949471,69.046616 81.272301,69.049103 
	C81.745453,68.684082 81.895775,68.316574 82.009094,67.960632 
	C81.972092,67.972183 81.949081,68.046219 82.271759,68.048462 
	C82.744843,67.683350 82.895241,67.315994 83.009880,66.961426 
	C82.974121,66.974213 82.948639,67.045776 83.271149,67.047729 
	C83.744194,66.682541 83.894730,66.315384 84.010651,65.962173 
	C83.976036,65.976112 83.948227,66.045372 84.270584,66.047073 
	C84.743645,65.681854 84.894348,65.314934 85.010956,64.961517 
	C84.976852,64.975021 84.947220,65.042130 85.296173,65.064972 
	C85.779480,64.714180 85.913834,64.340546 86.020340,63.959984 
	C85.992477,63.953049 85.976151,64.007584 85.976151,64.007584 
z"/>
<path fill="#052550" opacity="1.000000" stroke="none" 
	d="
M334.350037,86.703545 
	C334.285828,67.464867 334.221619,48.226192 334.517395,28.452116 
	C334.706635,27.595280 334.535889,27.273846 334.365173,26.952419 
	C334.446442,26.807440 334.529266,26.534632 334.608856,26.535557 
	C346.779083,26.676981 359.155457,25.525831 371.056427,27.397142 
	C381.316254,29.010405 385.160583,41.541527 380.576752,52.761055 
	C388.070740,58.247692 390.704987,65.562248 388.072784,74.532967 
	C385.671570,82.716385 379.386780,87.277824 369.104187,87.757332 
	C366.599182,87.254738 364.807709,87.035378 363.013580,87.011070 
	C353.459442,86.881638 343.904633,86.801041 334.350037,86.703545 
M370.679047,65.578239 
	C364.837097,64.799736 358.995148,64.021225 353.234253,63.253521 
	C353.234253,67.495811 353.234253,70.377937 353.234253,73.340981 
	C357.905334,73.340981 362.213409,73.529823 366.497284,73.288841 
	C370.943176,73.038734 372.143494,70.995941 370.679047,65.578239 
M352.847015,44.584946 
	C352.918762,46.024487 352.990479,47.464024 353.072845,49.116722 
	C356.501862,49.116722 359.729034,49.598309 362.692688,48.923168 
	C364.287811,48.559792 366.475861,46.222622 366.488861,44.759102 
	C366.502197,43.252499 364.469574,41.016571 362.836090,40.386990 
	C360.804901,39.604115 358.247772,40.306435 355.949188,40.066460 
	C353.021301,39.760784 352.593933,41.325558 352.847015,44.584946 
z"/>
<path fill="#052550" opacity="1.000000" stroke="none" 
	d="
M49.713585,83.001526 
	C49.775414,83.485748 49.837246,83.969978 50.032204,85.184311 
	C52.678898,86.533150 55.192463,87.151878 59.546497,88.223656 
	C54.553493,92.733345 50.419285,96.241287 46.573582,100.041206 
	C44.790295,101.803261 43.568577,104.133652 41.959129,106.537125 
	C41.739082,107.001968 41.558521,107.158211 41.583946,107.265762 
	C41.644871,107.523445 41.802635,107.758240 41.963699,108.003296 
	C42.006088,108.004333 42.011536,107.919708 42.011536,107.919708 
	C41.599369,107.905098 41.187199,107.890488 40.103607,107.658333 
	C36.958286,107.296082 34.444107,106.801506 32.019039,107.080780 
	C27.226915,107.632637 25.832947,105.907234 25.881399,101.052750 
	C26.127438,76.402061 25.999235,51.747631 26.002127,27.094509 
	C45.588875,27.094509 65.175621,27.094509 85.054092,27.094509 
	C85.054092,34.315933 85.054092,41.391846 85.054092,49.179932 
	C76.809692,49.179932 68.399162,49.179527 59.988636,49.180172 
	C57.328072,49.180374 54.654827,49.040607 52.014942,49.275124 
	C51.257099,49.342445 50.595612,50.494442 49.430389,51.694336 
	C48.662868,52.792343 48.090672,53.343109 48.086433,53.898205 
	C48.019081,62.726151 47.976479,71.555252 48.087635,80.382080 
	C48.098717,81.261909 49.146793,82.128685 49.713585,83.001526 
z"/>
<path fill="#052550" opacity="1.000000" stroke="none" 
	d="
M285.440826,32.369484 
	C286.238525,26.992577 288.846313,25.130907 294.026611,25.705000 
	C299.453766,26.306454 306.360657,24.065216 310.070435,26.682039 
	C313.740662,29.270954 314.304749,36.346798 316.094543,41.501976 
	C320.840179,55.170979 325.528992,68.859787 330.204041,82.553131 
	C331.920868,87.581764 331.520050,88.132401 326.396027,88.212212 
	C324.563568,88.240753 322.715057,88.063591 320.900269,88.244827 
	C314.877014,88.846359 309.756897,88.175888 309.476532,80.074326 
	C303.250092,80.074326 297.456299,79.847580 291.706299,80.248817 
	C290.420532,80.338539 288.621613,82.451263 288.219360,83.945084 
	C287.273224,87.459023 285.517578,88.645821 281.891022,88.380325 
	C277.105682,88.029984 272.275330,88.294151 266.318268,88.294151 
	C272.797028,69.305550 279.035919,51.019970 285.440826,32.369484 
M302.665924,61.175037 
	C301.642456,58.294659 300.619019,55.414276 299.229248,51.502964 
	C297.596588,56.188782 296.293304,59.929199 294.816223,64.168465 
	C297.328430,64.168465 299.161957,64.386002 300.898315,64.069740 
	C301.677948,63.927742 302.263153,62.718079 302.665924,61.175037 
z"/>
<path fill="#052550" opacity="1.000000" stroke="none" 
	d="
M222.949005,42.806335 
	C215.192871,42.806332 207.436768,42.806332 199.395432,42.806332 
	C199.395432,44.964279 199.395432,46.657127 199.395432,48.637619 
	C207.530441,48.637619 215.443008,48.637619 224.062195,48.637619 
	C224.062195,53.291363 224.062195,57.689384 223.512054,62.545128 
	C216.560852,63.001808 210.156952,62.897602 203.760742,63.073505 
	C202.195419,63.116550 200.655304,64.076424 199.103607,64.614777 
	C199.103607,66.432434 199.103607,68.250092 199.103607,70.550781 
	C207.604050,70.550781 215.853424,70.550781 224.400970,70.550781 
	C224.400970,76.599014 224.400970,82.161087 224.400970,87.976112 
	C209.677002,87.976112 195.091797,87.976112 180.214417,87.976112 
	C180.214417,67.425316 180.214417,46.875408 180.214417,25.831184 
	C194.223785,25.831184 208.154999,25.831184 222.619125,26.245787 
	C223.563980,28.144007 223.975922,29.627623 224.387878,31.111238 
	C224.442230,33.090363 224.496567,35.069485 224.191681,37.634270 
	C223.537964,39.748734 223.243484,41.277534 222.949005,42.806335 
z"/>
<path fill="#052550" opacity="1.000000" stroke="none" 
	d="
M267.858459,25.812340 
	C270.610046,25.585506 272.141602,25.897280 271.983337,28.888279 
	C271.746948,33.355289 271.921967,37.844070 271.921967,42.785515 
	C263.477753,42.785515 255.236755,42.785515 246.614609,42.785515 
	C246.614609,45.287643 246.614609,47.335842 246.614609,49.952663 
	C254.720139,49.952663 262.944275,49.952663 271.425842,49.952663 
	C271.425842,55.418804 271.425842,60.326664 271.425842,65.656364 
	C263.174500,65.656364 255.085907,65.656364 246.441177,65.656364 
	C246.441177,73.254967 246.441177,80.466637 246.441177,87.942581 
	C239.810577,87.942581 233.734772,87.942581 227.369781,87.942581 
	C227.369781,67.372093 227.369781,46.828732 227.369781,25.812605 
	C240.821869,25.812605 254.097885,25.812605 267.858459,25.812340 
z"/>
<path fill="#FF0000" opacity="1.000000" stroke="none" 
	d="
M59.671467,90.083527 
	C64.043808,90.464676 68.411507,90.918335 72.790298,91.198631 
	C75.249809,91.356064 77.727661,91.226990 80.574539,91.226990 
	C80.574539,98.865196 80.574539,106.234337 80.574539,113.990730 
	C66.441063,113.990730 52.126282,113.990730 37.145866,113.990730 
	C38.925961,112.049683 40.499012,110.334396 42.041801,108.269409 
	C42.011536,107.919708 42.006088,108.004333 42.308815,108.035965 
	C42.822472,107.447899 43.033401,106.828201 43.517296,106.021088 
	C49.083996,100.583633 54.377731,95.333580 59.671467,90.083527 
z"/>
<path fill="#FF0000" opacity="1.000000" stroke="none" 
	d="
M72.970245,76.960037 
	C67.951950,76.940239 62.905899,76.940239 57.585217,76.940239 
	C57.585217,70.712822 57.585217,64.979637 57.585217,58.889702 
	C67.918533,58.889702 78.264374,58.889702 89.219612,58.889702 
	C87.798637,60.579784 86.608772,61.994991 85.697525,63.708893 
	C85.976151,64.007584 85.992477,63.953049 85.615463,63.772942 
	C85.141365,64.075935 85.044296,64.559036 84.947220,65.042130 
	C84.947220,65.042130 84.976852,64.975021 84.601990,64.785889 
	C84.134155,65.079620 84.041191,65.562500 83.948227,66.045372 
	C83.948227,66.045372 83.976036,65.976112 83.601913,65.786911 
	C83.134735,66.080391 83.041687,66.563087 82.948639,67.045776 
	C82.948639,67.045776 82.974121,66.974213 82.601456,66.786789 
	C82.135551,67.081642 82.042320,67.563934 81.949081,68.046219 
	C81.949081,68.046219 81.972092,67.972183 81.600952,67.786751 
	C81.136375,68.083084 81.042923,68.564850 80.949478,69.046616 
	C80.949471,69.046616 80.970299,68.970375 80.600540,68.786682 
	C80.137108,69.084312 80.043434,69.565620 79.949760,70.046936 
	C79.949760,70.046936 79.968872,69.968933 79.600258,69.786713 
	C79.137741,70.085381 79.043831,70.566254 78.949921,71.047134 
	C78.949921,71.047134 78.967934,70.967957 78.600166,70.786835 
	C78.138252,71.086205 78.044113,71.566704 77.949966,72.047203 
	C77.949966,72.047203 77.967491,71.967499 77.600204,71.787125 
	C77.138596,72.086899 77.044266,72.567032 76.949936,73.047173 
	C76.949936,73.047173 76.967407,72.967384 76.600334,72.787521 
	C76.138809,73.087486 76.044365,73.567307 75.949913,74.047127 
	C75.949913,74.047127 75.967392,73.967377 75.600418,73.787918 
	C75.138931,74.088013 75.044434,74.567574 74.949936,75.047134 
	C74.949936,75.047134 74.967194,74.967186 74.600342,74.788155 
	C74.139023,75.088501 74.044548,75.567886 73.950066,76.047264 
	C73.950066,76.047264 73.966690,75.966690 73.600105,75.788132 
	C73.139122,76.088905 73.044716,76.568237 72.950317,77.047562 
	C72.950317,77.047562 72.942490,76.979828 72.970245,76.960037 
z"/>
<path fill="#FF0000" opacity="1.000000" stroke="none" 
	d="
M98.819572,49.910496 
	C97.008202,49.910496 95.196831,49.910496 93.103104,49.910496 
	C93.103104,42.341297 93.103104,34.923512 93.103104,27.672585 
	C101.795204,27.672585 110.437393,27.672585 120.381561,27.672585 
	C118.363182,29.909842 117.307533,31.079966 115.750412,32.725910 
	C115.147758,33.804054 115.046593,34.406380 114.945419,35.008701 
	C114.945419,35.008701 115.012558,35.009087 114.610497,34.795219 
	C114.120003,35.059898 114.031570,35.538441 113.943138,36.016987 
	C113.943138,36.016987 114.013908,36.013943 113.611618,35.797729 
	C113.120659,36.060078 113.032005,36.538643 112.943352,37.017204 
	C112.943352,37.017204 113.014107,37.014137 112.611763,36.797836 
	C112.120789,37.060173 112.032158,37.538818 111.943527,38.017464 
	C111.943527,38.017464 112.014328,38.014370 111.612015,37.797909 
	C111.120995,38.060150 111.032288,38.538857 110.943581,39.017559 
	C110.943581,39.017559 111.014420,39.014496 110.612152,38.797935 
	C110.121109,39.060078 110.032341,39.538784 109.943573,40.017490 
	C109.943565,40.017490 110.014374,40.014454 109.612152,39.797913 
	C109.121124,40.060024 109.032333,40.538685 108.943542,41.017342 
	C108.943542,41.017342 109.014244,41.014324 108.612068,40.797882 
	C108.121117,41.060028 108.032341,41.538620 107.943565,42.017208 
	C107.943565,42.017208 108.014130,42.014214 107.611984,41.797874 
	C107.121109,42.060055 107.032387,42.538574 106.943665,43.017097 
	C106.943665,43.017097 107.014046,43.014111 106.611954,42.797905 
	C106.121178,43.060127 106.032509,43.538563 105.943832,44.016994 
	C105.943832,44.016994 106.013947,44.014015 105.611923,43.797951 
	C105.121292,44.060211 105.032677,44.538544 104.944054,45.016872 
	C104.944054,45.016872 105.013840,45.013893 104.611908,44.798008 
	C104.121422,45.060341 104.032875,45.538559 103.944328,46.016777 
	C103.944328,46.016777 104.013748,46.013802 103.611862,45.798096 
	C103.121536,46.060532 103.033104,46.538673 102.944664,47.016819 
	C102.944664,47.016819 103.013779,47.013832 102.611877,46.798241 
	C102.121666,47.060814 102.033363,47.538979 101.945053,48.017143 
	C101.945053,48.017143 102.014000,48.014042 101.612000,47.798412 
	C101.121826,48.061127 101.033653,48.539467 100.945488,49.017811 
	C100.945488,49.017811 101.008110,49.012733 100.734062,48.703533 
	C99.913200,48.899719 99.366386,49.405106 98.819572,49.910496 
z"/>
<path fill="#052550" opacity="1.000000" stroke="none" 
	d="
M152.869965,98.999954 
	C152.869965,68.089775 152.869965,37.679604 152.869965,5.884682 
	C154.506195,7.319224 155.532532,7.795633 155.769684,8.527692 
	C156.112381,9.585626 155.896042,10.828837 155.896118,11.993002 
	C155.898346,51.096115 155.908157,90.199242 155.863358,129.302292 
	C155.861404,130.999619 155.353806,132.696350 155.081757,134.393356 
	C154.344498,134.299026 153.607239,134.204712 152.869980,134.110382 
	C152.869980,122.573578 152.869980,111.036774 152.869965,98.999954 
z"/>
<path fill="#052550" opacity="1.000000" stroke="none" 
	d="
M224.742142,99.124725 
	C228.633728,92.181999 234.586121,89.959106 240.776993,92.815575 
	C246.260803,95.345802 248.714783,102.024925 246.415649,108.162590 
	C244.202438,114.070915 237.967941,116.959824 231.677490,114.991867 
	C225.614044,113.094925 223.012894,107.399353 224.742142,99.124725 
M232.623962,97.947853 
	C231.939209,100.806557 230.360413,103.804359 230.778488,106.491486 
	C231.411697,110.561424 237.007568,112.000389 239.014664,108.697395 
	C240.412384,106.397240 240.676666,102.775467 240.066605,100.053543 
	C239.355957,96.882973 236.363953,96.201866 232.623962,97.947853 
z"/>
<path fill="#052550" opacity="1.000000" stroke="none" 
	d="
M220.318253,102.212082 
	C219.466934,103.856178 218.730087,105.137787 217.931747,106.526375 
	C219.304840,109.069511 220.708420,111.669121 222.217392,114.463943 
	C217.704498,115.991913 214.874695,115.061951 213.130066,110.601349 
	C212.586136,109.210632 210.407562,108.459267 208.078018,106.758797 
	C208.078018,110.344284 208.078018,112.315590 208.078018,114.673195 
	C206.134109,114.673195 204.400711,114.673195 202.285004,114.673195 
	C202.285004,107.546494 202.285004,100.160446 202.285004,92.758110 
	C215.000168,90.488106 222.060333,93.660614 220.318253,102.212082 
M211.255890,97.024422 
	C205.451965,96.822121 208.644028,100.574532 208.082199,104.208519 
	C210.746658,102.792183 212.575119,102.040665 214.020111,100.831032 
	C214.255814,100.633743 212.797409,98.412735 211.255890,97.024422 
z"/>
<path fill="#052550" opacity="1.000000" stroke="none" 
	d="
M302.328308,108.130470 
	C295.961853,107.517876 300.353516,112.519684 297.671234,114.860237 
	C296.912323,114.903214 295.180725,115.001274 293.087372,115.119820 
	C293.087372,107.534050 293.087372,100.153770 293.087372,91.984879 
	C297.273743,92.230850 301.581573,92.036087 305.692841,92.842949 
	C310.449066,93.776390 313.290985,98.386543 310.837372,102.213760 
	C307.924805,106.756844 310.448364,109.470093 312.123566,112.828751 
	C312.405060,113.393074 312.616760,113.992210 312.829620,114.500984 
	C306.279938,117.320457 304.893921,112.186829 302.328308,108.130470 
M302.115021,103.030495 
	C303.059906,101.643089 304.004791,100.255684 304.949707,98.868286 
	C303.107574,98.100990 301.265442,97.333694 299.423309,96.566391 
	C298.929291,97.141281 298.435242,97.716164 297.941223,98.291046 
	C299.039856,99.881088 300.138489,101.471123 302.115021,103.030495 
z"/>
<path fill="#052550" opacity="1.000000" stroke="none" 
	d="
M348.130341,94.359329 
	C349.102142,93.300270 350.050232,92.244965 351.045288,92.198662 
	C355.183167,92.006111 359.335205,92.117699 363.743042,92.117699 
	C364.075165,93.633942 364.380859,95.029404 364.800049,96.943001 
	C361.215515,96.943001 357.963440,96.943001 354.453979,96.943001 
	C353.400085,103.370331 358.446320,100.021553 360.870148,101.766647 
	C361.061737,102.526588 361.404144,103.884735 361.664795,104.918655 
	C359.786896,107.843735 353.710968,102.987213 354.295227,109.959969 
	C357.464691,109.959969 360.555908,109.959969 363.841461,109.959969 
	C364.130859,111.769775 364.356110,113.178635 364.621613,114.838943 
	C359.093903,114.838943 353.855896,114.838943 348.128235,114.838943 
	C348.128235,108.023384 348.128235,101.425247 348.130341,94.359329 
z"/>
<path fill="#052550" opacity="1.000000" stroke="none" 
	d="
M179.904785,97.143448 
	C179.904724,95.354942 179.904724,94.049988 179.904724,92.357368 
	C183.943176,92.357368 187.731857,92.001938 191.423935,92.447296 
	C196.044891,93.004692 198.741302,96.377319 198.659088,100.528770 
	C198.577133,104.667023 195.708725,107.554939 190.977768,108.183464 
	C189.512711,108.378113 188.027695,108.422600 186.237732,108.559929 
	C186.061783,110.562340 185.894455,112.466515 185.687180,114.825478 
	C183.986786,114.910271 182.250565,114.996849 179.904861,115.113815 
	C179.904861,109.133965 179.904861,103.380486 179.904785,97.143448 
M185.887848,101.217667 
	C185.672165,104.193695 187.889130,104.211082 189.436050,103.423874 
	C190.690750,102.785393 191.914337,100.942924 191.990387,99.570114 
	C192.034302,98.777031 189.887146,97.441238 188.531525,97.079933 
	C185.730621,96.333443 185.783798,98.444923 185.887848,101.217667 
z"/>
<path fill="#052550" opacity="1.000000" stroke="none" 
	d="
M259.379883,108.358337 
	C257.961182,110.271370 256.982208,112.176399 255.592010,114.881668 
	C254.924545,114.912720 253.189758,114.993431 251.151352,115.088272 
	C251.151352,107.447151 251.151352,100.064705 251.151352,92.131897 
	C253.837723,92.131897 256.441040,92.097343 259.043121,92.138641 
	C265.752502,92.245148 269.456573,95.071655 269.614594,100.160042 
	C269.765259,105.010918 266.568329,107.684067 259.379883,108.358337 
M262.952301,98.758385 
	C261.076874,98.064018 259.201477,97.369652 257.209259,96.632042 
	C257.209259,99.674812 257.209259,101.587700 257.209259,103.558281 
	C260.510315,103.729599 263.440338,103.932098 262.952301,98.758385 
z"/>
<path fill="#052550" opacity="1.000000" stroke="none" 
	d="
M273.487671,92.539734 
	C278.642365,92.235184 283.433716,92.235184 288.570099,92.235184 
	C288.825867,93.727722 289.062897,95.111115 289.239624,96.142387 
	C286.303955,99.043266 280.245148,93.892067 278.589630,101.060120 
	C281.378204,101.060120 283.317505,101.060120 285.591125,101.060120 
	C285.848450,102.700493 286.064941,104.080643 286.329926,105.769821 
	C283.875366,105.901230 281.766388,106.014145 279.304901,106.145927 
	C279.213348,107.364578 279.123901,108.554871 279.007385,110.105377 
	C282.324707,110.105377 285.262451,110.105377 288.519531,110.105377 
	C288.815796,111.758331 289.064514,113.145828 289.365051,114.822601 
	C283.808746,114.822601 278.584137,114.822601 273.124298,114.822601 
	C273.124298,107.342911 273.124298,100.093597 273.487671,92.539734 
z"/>
<path fill="#052550" opacity="1.000000" stroke="none" 
	d="
M375.472656,115.387337 
	C372.354309,115.087242 369.624146,114.724449 366.388763,114.294525 
	C367.189728,112.231415 367.700439,110.915916 368.157623,109.738266 
	C370.939423,109.915871 373.427216,110.074707 375.914978,110.233536 
	C376.103058,109.758926 376.291107,109.284309 376.479187,108.809700 
	C375.033569,107.715385 373.631622,106.556770 372.133453,105.539886 
	C368.801788,103.278481 364.980988,101.253265 366.812805,96.177025 
	C368.143250,92.490166 372.746307,90.917664 377.987061,92.181778 
	C378.939911,92.411621 379.827911,92.910301 380.822235,93.316032 
	C381.153503,100.220932 375.203247,95.304581 372.378998,98.323082 
	C374.333069,99.663185 376.540497,100.633926 377.959412,102.283112 
	C379.874023,104.508369 382.668121,107.484489 382.324799,109.713287 
	C381.993469,111.864578 378.157318,113.476036 375.472656,115.387337 
z"/>
<path fill="#052550" opacity="1.000000" stroke="none" 
	d="
M333.723267,95.148071 
	C331.678070,96.304619 329.579956,97.030846 326.849243,97.976036 
	C326.849243,103.068932 326.849243,108.798950 326.849243,114.789528 
	C324.635376,114.789528 322.914062,114.789528 320.705688,114.789528 
	C320.705688,108.944878 320.705688,103.212357 320.705688,97.279892 
	C318.318817,97.113525 316.396027,96.979507 314.270508,96.831360 
	C314.270508,95.265877 314.270508,93.890900 314.270508,92.117142 
	C319.986084,92.117142 325.442749,91.991859 330.883026,92.234161 
	C331.847076,92.277100 332.742950,93.850891 333.723267,95.148071 
z"/>
<path fill="#052550" opacity="1.000000" stroke="none" 
	d="
M25.603325,27.093010 
	C25.999235,51.747631 26.127438,76.402061 25.881399,101.052750 
	C25.832947,105.907234 27.226915,107.632637 32.019039,107.080780 
	C34.444107,106.801506 36.958286,107.296082 39.722565,107.741455 
	C35.101578,108.300774 30.190212,108.559410 25.024498,108.831451 
	C24.829565,107.281235 24.570663,106.177711 24.569651,105.073959 
	C24.546795,80.166901 24.544008,55.259796 24.579954,30.352766 
	C24.581524,29.265383 24.987125,28.178583 25.603325,27.093010 
z"/>
<path fill="#052550" opacity="1.000000" stroke="none" 
	d="
M342.940186,100.083679 
	C342.940186,105.204185 342.940186,109.839745 342.940186,114.761215 
	C340.882477,114.761215 339.153381,114.761215 337.155334,114.761215 
	C337.155334,107.343239 337.155334,99.950882 337.155334,92.343124 
	C338.999695,92.343124 340.612396,92.343124 342.940186,92.343124 
	C342.940186,94.742836 342.940186,97.170784 342.940186,100.083679 
z"/>
<path fill="#052550" opacity="1.000000" stroke="none" 
	d="
M59.808632,89.718262 
	C54.377731,95.333580 49.083996,100.583633 43.229206,106.009727 
	C42.476196,106.192642 42.284241,106.199524 42.092278,106.206398 
	C43.568577,104.133652 44.790295,101.803261 46.573582,100.041206 
	C50.419285,96.241287 54.553493,92.733345 59.546497,88.223656 
	C55.192463,87.151878 52.678898,86.533150 50.056679,85.551598 
	C53.871708,85.188774 57.795391,85.188774 62.495796,85.188774 
	C61.335377,87.083763 60.640587,88.218376 59.808632,89.718262 
z"/>
<path fill="#052550" opacity="1.000000" stroke="none" 
	d="
M49.806396,82.541275 
	C49.146793,82.128685 48.098717,81.261909 48.087635,80.382080 
	C47.976479,71.555252 48.019081,62.726151 48.086433,53.898205 
	C48.090672,53.343109 48.662868,52.792343 49.342453,52.119221 
	C49.775784,62.026264 49.837498,72.053650 49.806396,82.541275 
z"/>
<path fill="#052550" opacity="1.000000" stroke="none" 
	d="
M70.845520,80.123703 
	C75.532356,80.354546 79.968216,80.731995 84.411240,80.982262 
	C90.171341,81.306725 95.937141,81.529861 101.935806,82.185974 
	C91.789917,82.632584 81.408714,82.689857 70.551483,82.285080 
	C70.057648,81.572136 70.039833,81.321243 70.022011,81.070343 
	C70.213913,80.784813 70.405823,80.499275 70.845520,80.123703 
z"/>
<path fill="#052550" opacity="1.000000" stroke="none" 
	d="
M334.374756,86.719223 
	C343.904633,86.801041 353.459442,86.881638 363.013580,87.011070 
	C364.807709,87.035378 366.599182,87.254738 368.691101,87.673538 
	C357.960846,88.034607 346.931427,88.106209 335.328888,87.729477 
	C334.619263,87.104225 334.482727,86.927315 334.346191,86.750404 
	C334.346191,86.750404 334.399445,86.734901 334.374756,86.719223 
z"/>
<path fill="#052550" opacity="1.000000" stroke="none" 
	d="
M199.560638,64.527206 
	C200.655304,64.076424 202.195419,63.116550 203.760742,63.073505 
	C210.156952,62.897602 216.560852,63.001808 223.423096,63.005066 
	C222.522049,63.452503 221.168625,64.248894 219.796112,64.283272 
	C213.206116,64.448311 206.610977,64.407410 199.560638,64.527206 
z"/>
<path fill="#052550" opacity="1.000000" stroke="none" 
	d="
M223.334930,42.859947 
	C223.243484,41.277534 223.537964,39.748734 224.110260,38.051567 
	C224.165665,39.559986 223.943253,41.236771 223.334930,42.859947 
z"/>
<path fill="#052550" opacity="1.000000" stroke="none" 
	d="
M224.543213,30.731014 
	C223.975922,29.627623 223.563980,28.144007 223.086670,26.297768 
	C223.580383,27.407028 224.139481,28.878908 224.543213,30.731014 
z"/>
<path fill="#052550" opacity="1.000000" stroke="none" 
	d="
M69.772018,81.143784 
	C70.039833,81.321243 70.057648,81.572136 70.098145,82.199677 
	C69.921227,82.123299 69.721626,81.670265 69.772018,81.143784 
z"/>
<path fill="none" opacity="1.000000" stroke="none" 
	d="
M115.248444,35.041748 
	C115.046593,34.406380 115.147758,33.804054 115.595230,33.045593 
	C115.972679,33.286457 116.003838,33.683464 116.024574,34.379154 
	C115.859924,34.810158 115.705688,34.942474 115.248444,35.041748 
z"/>
<path fill="none" opacity="1.000000" stroke="none" 
	d="
M99.185333,49.961082 
	C99.366386,49.405106 99.913200,48.899719 100.730881,48.672279 
	C100.937843,49.273155 100.873932,49.596077 100.548126,50.000381 
	C100.041176,50.058395 99.796135,50.035034 99.185333,49.961082 
z"/>
<path fill="#052550" opacity="1.000000" stroke="none" 
	d="
M334.284943,27.233425 
	C334.535889,27.273846 334.706635,27.595280 334.614807,27.998341 
	C334.303101,27.891457 334.253906,27.702946 334.284943,27.233425 
z"/>
<path fill="#052550" opacity="1.000000" stroke="none" 
	d="
M334.245300,86.964088 
	C334.482727,86.927315 334.619263,87.104225 334.877625,87.593384 
	C334.714447,87.663017 334.429413,87.420395 334.245300,86.964088 
z"/>
<path fill="none" opacity="1.000000" stroke="none" 
	d="
M114.264999,36.029243 
	C114.031570,35.538441 114.120003,35.059898 114.612289,34.761696 
	C114.873055,35.308529 114.729958,35.675014 114.264999,36.029243 
z"/>
<path fill="none" opacity="1.000000" stroke="none" 
	d="
M79.272942,71.050034 
	C79.043831,70.566254 79.137741,70.085381 79.639252,69.777145 
	C79.896568,70.317505 79.746262,70.685219 79.272942,71.050034 
z"/>
<path fill="none" opacity="1.000000" stroke="none" 
	d="
M113.265160,37.029770 
	C113.032005,36.538643 113.120659,36.060078 113.613075,35.762337 
	C113.873543,36.309551 113.730255,36.675945 113.265160,37.029770 
z"/>
<path fill="none" opacity="1.000000" stroke="none" 
	d="
M112.265427,38.030197 
	C112.032158,37.538818 112.120789,37.060173 112.613235,36.762455 
	C112.873817,37.309895 112.730576,37.676411 112.265427,38.030197 
z"/>
<path fill="none" opacity="1.000000" stroke="none" 
	d="
M111.265564,39.030502 
	C111.032288,38.538857 111.120995,38.060150 111.613525,37.762508 
	C111.874100,38.310196 111.730827,38.676823 111.265564,39.030502 
z"/>
<path fill="none" opacity="1.000000" stroke="none" 
	d="
M110.265640,40.030701 
	C110.032341,39.538784 110.121109,39.060078 110.613693,38.762512 
	C110.874245,39.310410 110.730980,39.677158 110.265640,40.030701 
z"/>
<path fill="none" opacity="1.000000" stroke="none" 
	d="
M109.265739,41.030888 
	C109.032333,40.538685 109.121124,40.060024 109.613708,39.762512 
	C109.874306,40.310581 109.731117,40.677505 109.265739,41.030888 
z"/>
<path fill="none" opacity="1.000000" stroke="none" 
	d="
M108.265930,42.031151 
	C108.032341,41.538620 108.121117,41.060028 108.613617,40.762535 
	C108.874321,41.310783 108.731316,41.677940 108.265930,42.031151 
z"/>
<path fill="none" opacity="1.000000" stroke="none" 
	d="
M107.266251,43.031521 
	C107.032387,42.538574 107.121109,42.060055 107.613518,41.762589 
	C107.874413,42.311081 107.731628,42.678513 107.266251,43.031521 
z"/>
<path fill="none" opacity="1.000000" stroke="none" 
	d="
M106.266678,44.032013 
	C106.032509,43.538563 106.121178,43.060127 106.613449,42.762718 
	C106.874550,43.311504 106.732040,43.679268 106.266678,44.032013 
z"/>
<path fill="none" opacity="1.000000" stroke="none" 
	d="
M105.267212,45.032631 
	C105.032677,44.538544 105.121292,44.060211 105.613419,43.762886 
	C105.874741,44.312057 105.732559,44.680222 105.267212,45.032631 
z"/>
<path fill="none" opacity="1.000000" stroke="none" 
	d="
M104.267860,46.033363 
	C104.032875,45.538559 104.121422,45.060341 104.613373,44.763115 
	C104.874985,45.312721 104.733185,45.681335 104.267860,46.033363 
z"/>
<path fill="none" opacity="1.000000" stroke="none" 
	d="
M103.268585,47.034248 
	C103.033104,46.538673 103.121536,46.060532 103.613327,45.763382 
	C103.875290,46.313480 103.733902,46.682583 103.268585,47.034248 
z"/>
<path fill="none" opacity="1.000000" stroke="none" 
	d="
M102.269363,48.035240 
	C102.033363,47.538979 102.121666,47.060814 102.613342,46.763680 
	C102.875687,47.314251 102.734673,47.683796 102.269363,48.035240 
z"/>
<path fill="none" opacity="1.000000" stroke="none" 
	d="
M101.270081,49.036247 
	C101.033653,48.539467 101.121826,48.061127 101.613503,47.763939 
	C101.876228,48.314953 101.735451,48.684814 101.270081,49.036247 
z"/>
<path fill="none" opacity="1.000000" stroke="none" 
	d="
M85.296173,65.064972 
	C85.044296,64.559036 85.141365,64.075935 85.643318,63.779877 
	C85.913834,64.340546 85.779480,64.714180 85.296173,65.064972 
z"/>
<path fill="none" opacity="1.000000" stroke="none" 
	d="
M84.270576,66.047073 
	C84.041191,65.562500 84.134155,65.079620 84.636086,64.772377 
	C84.894348,65.314934 84.743645,65.681854 84.270576,66.047073 
z"/>
<path fill="none" opacity="1.000000" stroke="none" 
	d="
M83.271149,67.047729 
	C83.041687,66.563087 83.134735,66.080391 83.636520,65.772964 
	C83.894730,66.315384 83.744194,66.682541 83.271149,67.047729 
z"/>
<path fill="none" opacity="1.000000" stroke="none" 
	d="
M82.271759,68.048462 
	C82.042320,67.563934 82.135551,67.081642 82.637215,66.774002 
	C82.895241,67.315994 82.744843,67.683350 82.271759,68.048462 
z"/>
<path fill="none" opacity="1.000000" stroke="none" 
	d="
M81.272308,69.049103 
	C81.042923,68.564850 81.136375,68.083084 81.637955,67.775192 
	C81.895775,68.316574 81.745453,68.684082 81.272308,69.049103 
z"/>
<path fill="none" opacity="1.000000" stroke="none" 
	d="
M80.272690,70.049622 
	C80.043434,69.565620 80.137108,69.084312 80.638657,68.776230 
	C80.896217,69.317078 80.745926,69.684692 80.272690,70.049622 
z"/>
<path fill="none" opacity="1.000000" stroke="none" 
	d="
M73.274094,77.051819 
	C73.044716,76.568237 73.139122,76.088905 73.640396,75.779854 
	C73.897469,76.318771 73.747673,76.687424 73.274094,77.051819 
z"/>
<path fill="none" opacity="1.000000" stroke="none" 
	d="
M74.273788,76.051483 
	C74.044548,75.567886 74.139023,75.088501 74.640335,74.779572 
	C74.897278,75.318581 74.747391,75.687141 74.273788,76.051483 
z"/>
<path fill="none" opacity="1.000000" stroke="none" 
	d="
M75.273529,75.051208 
	C75.044434,74.567574 75.138931,74.088013 75.640305,73.779236 
	C75.897156,74.318451 75.747147,74.686867 75.273529,75.051208 
z"/>
<path fill="none" opacity="1.000000" stroke="none" 
	d="
M76.273331,74.050949 
	C76.044365,73.567307 76.138809,73.087486 76.640236,72.778862 
	C76.897064,73.318291 76.746910,73.686523 76.273331,74.050949 
z"/>
<path fill="none" opacity="1.000000" stroke="none" 
	d="
M77.273193,73.050659 
	C77.044266,72.567032 77.138596,72.086899 77.640076,71.778412 
	C77.896957,72.318092 77.746704,72.686127 77.273193,73.050659 
z"/>
<path fill="none" opacity="1.000000" stroke="none" 
	d="
M78.273094,72.050385 
	C78.044113,71.566704 78.138252,71.086205 78.639755,70.777847 
	C78.896812,71.317841 78.746513,71.685699 78.273094,72.050385 
z"/>
<path fill="none" opacity="1.000000" stroke="none" 
	d="
M370.891632,65.921005 
	C372.143494,70.995941 370.943176,73.038734 366.497284,73.288841 
	C362.213409,73.529823 357.905334,73.340981 353.234253,73.340981 
	C353.234253,70.377937 353.234253,67.495811 353.234253,63.253521 
	C358.995148,64.021225 364.837097,64.799736 370.891632,65.921005 
z"/>
<path fill="none" opacity="1.000000" stroke="none" 
	d="
M352.846863,44.107658 
	C352.593933,41.325558 353.021301,39.760784 355.949188,40.066460 
	C358.247772,40.306435 360.804901,39.604115 362.836090,40.386990 
	C364.469574,41.016571 366.502197,43.252499 366.488861,44.759102 
	C366.475861,46.222622 364.287811,48.559792 362.692688,48.923168 
	C359.729034,49.598309 356.501862,49.116722 353.072845,49.116722 
	C352.990479,47.464024 352.918762,46.024487 352.846863,44.107658 
z"/>
<path fill="none" opacity="1.000000" stroke="none" 
	d="
M41.959129,106.537125 
	C42.284241,106.199524 42.476196,106.192642 42.956242,106.197128 
	C43.033401,106.828201 42.822472,107.447899 42.266426,108.034927 
	C41.802635,107.758240 41.644871,107.523445 41.583946,107.265762 
	C41.558521,107.158211 41.739082,107.001968 41.959129,106.537125 
z"/>
<path fill="none" opacity="1.000000" stroke="none" 
	d="
M302.801270,61.583961 
	C302.263153,62.718079 301.677948,63.927742 300.898315,64.069740 
	C299.161957,64.386002 297.328430,64.168465 294.816223,64.168465 
	C296.293304,59.929199 297.596588,56.188782 299.229248,51.502964 
	C300.619019,55.414276 301.642456,58.294659 302.801270,61.583961 
z"/>
<path fill="none" opacity="1.000000" stroke="none" 
	d="
M232.944122,97.715973 
	C236.363953,96.201866 239.355957,96.882973 240.066605,100.053543 
	C240.676666,102.775467 240.412384,106.397240 239.014664,108.697395 
	C237.007568,112.000389 231.411697,110.561424 230.778488,106.491486 
	C230.360413,103.804359 231.939209,100.806557 232.944122,97.715973 
z"/>
<path fill="none" opacity="1.000000" stroke="none" 
	d="
M211.688965,97.075752 
	C212.797409,98.412735 214.255814,100.633743 214.020111,100.831032 
	C212.575119,102.040665 210.746658,102.792183 208.082199,104.208519 
	C208.644028,100.574532 205.451965,96.822121 211.688965,97.075752 
z"/>
<path fill="none" opacity="1.000000" stroke="none" 
	d="
M301.676086,103.045830 
	C300.138489,101.471123 299.039856,99.881088 297.941223,98.291046 
	C298.435242,97.716164 298.929291,97.141281 299.423309,96.566391 
	C301.265442,97.333694 303.107574,98.100990 304.949707,98.868286 
	C304.004791,100.255684 303.059906,101.643089 301.676086,103.045830 
z"/>
<path fill="none" opacity="1.000000" stroke="none" 
	d="
M185.887573,100.785255 
	C185.783798,98.444923 185.730621,96.333443 188.531525,97.079933 
	C189.887146,97.441238 192.034302,98.777031 191.990387,99.570114 
	C191.914337,100.942924 190.690750,102.785393 189.436050,103.423874 
	C187.889130,104.211082 185.672165,104.193695 185.887573,100.785255 
z"/>
<path fill="none" opacity="1.000000" stroke="none" 
	d="
M263.070984,99.163734 
	C263.440338,103.932098 260.510315,103.729599 257.209259,103.558281 
	C257.209259,101.587700 257.209259,99.674812 257.209259,96.632042 
	C259.201477,97.369652 261.076874,98.064018 263.070984,99.163734 
z"/>
</svg>
